<svg id="Layer_2" data-name="Layer 2" xmlns="http://www.w3.org/2000/svg" xmlns:xlink="http://www.w3.org/1999/xlink" viewBox="0 0 679.45 626.88"><defs><style>.cls-1{fill:#e7effc;}.cls-2{fill:url(#radial-gradient);}.cls-3{fill:#fff;}</style><radialGradient id="radial-gradient" cx="455.14" cy="363.43" r="412.3" gradientUnits="userSpaceOnUse"><stop offset="0.35" stop-color="aqua"/><stop offset="1" stop-color="#f0f"/></radialGradient></defs><path class="cls-1" d="M822,117c82.34,130.24,51.9,307.46-121.75,417.25s-381.19,93.2-463.53-37.05S228.41,172.38,402.07,62.59,739.66-13.24,822,117Z" transform="translate(-203.09 20.02)"/><path class="cls-2" d="M834.56,97.09c79,125,57.9,227.08-44.56,356.91C659,620,355,594,276,469S298.61,119.26,438.41,30.88,755.57-27.86,834.56,97.09Z" transform="translate(-203.09 20.02)"/><path d="M365.69,189H442l99.64,146.4V189h77.07V453.64H541.68l-99.1-145.29V453.64H365.69Z" transform="translate(-203.09 20.02)"/><path class="cls-3" d="M336.69,210H413l99.64,146.4V210h77.07V474.64H512.68l-99.1-145.29V474.64H336.69Z" transform="translate(-203.09 20.02)"/></svg>